# xmcd
#
# Track frame offsets:
#	150
#	12317
#	21782
#	30837
#	45192
#	54625
#	72230
#	82717
#	96157
#	104240
#	116930
#	131242
#	143625
#	158390
#	171515
#	182835
#	196867
#	209782
#	220545
#	232872
#	244312
#	254580
#	265625
#	273735
#	287585
#	296592
#	305365
#	325100
#	336745
#
# Disc length: 4692
#
# Revision: 6
# Processed by: cddbd v1.5.1PL0 Copyright (c) Steve Scherf et al.
# Submitted via: CDex 1.50Beta7
# Normalized: r5:DSETVAR1
#
DISCID=af12521d
DTITLE=Various Artist - Resort+Music Mediterranean Sea
DYEAR=2002
DGENRE=Jazz
TTITLE0=Procession - Signature Tune
TTITLE1=The Caterina Valente Singers - Dominique
TTITLE2=Jose Roberto E Seu Conjunto - Aventura
TTITLE3=Kenny Rankin - Tamborine Man
TTITLE4=Orchestre Sous La Direction De Michel Colombier - Sous Le Soleil Exactement
TTITLE5=James Brown at the organ - Our Day Will Come
TTITLE6=Brigette Bardot - Nue Au Soleil
TTITLE7=Michel Legrand - He, Antonio
TTITLE8=Jose Bartel - Marin, Ani, Amant ou Mari
TTITLE9=The Dirty Shames - Coconut Grove
TTITLE10=Cal Tjader - Sally's Tomato
TTITLE11=The Sandpipers - Never Can Say Goodbye
TTITLE12=Diana Ross and The Supremes - Bah-Bah-Bah
TTITLE13=Boulou - Bluesette
TTITLE14=Jean Constantin - Pas Tant D'chichi Ponpon (Samba Da Minia Terra)
TTITLE15=The Alan Copeland Singers - Tiella Lee
TTITLE16=Pat Williams - Bubbles Was A Cheerleader
TTITLE17=Les Parisiennes - Qu'est-c'qu'on Attend Pour Etre Heureux
TTITLE18=The Madisons - Le Grand "M"
TTITLE19=Jose Bartel - Nous Boyageons De Ville En Ville
TTITLE20=Tamba 4 - San Salvador
TTITLE21=Stan Getz - Communication '72
TTITLE22=The Swingle Singers - Fuga In Bulldozer
TTITLE23=Roland Kirk - Raouf
TTITLE24=Claude Nougaro - A Tes Seins (Saint Thomas)
TTITLE25=Tamba 4 - Weekend
TTITLE26=Quincy Jones Features The Morgan Ames Siongers - Maybe Tomorrow
TTITLE27=Orchestre Sous La Direction De Rene-Pierre Chouteau - La Guerre Des Boutons
TTITLE28=Don Costa - Adios
EXTD=YEAR: 2002
EXTT0=
EXTT1=
EXTT2=
EXTT3=
EXTT4=
EXTT5=
EXTT6=
EXTT7=
EXTT8=
EXTT9=
EXTT10=
EXTT11=
EXTT12=
EXTT13=
EXTT14=
EXTT15=
EXTT16=
EXTT17=
EXTT18=
EXTT19=
EXTT20=
EXTT21=
EXTT22=
EXTT23=
EXTT24=
EXTT25=
EXTT26=
EXTT27=
EXTT28=
PLAYORDER=
